<?xml version="1.0" encoding="utf-8"?><!-- Uploaded to: SVG Repo, www.svgrepo.com, Generator: SVG Repo Mixer Tools -->
<svg fill="#000000" width="800px" height="800px" viewBox="0 0 24 24" id="translate" xmlns="http://www.w3.org/2000/svg" class="icon multi-color"><title style="stroke-width: 2;">translate</title><path id="secondary-fill" d="M21,6.27V16a1,1,0,0,1-1,1H16l-4,4L8,17H4a1,1,0,0,1-1-1V6.27A2,2,0,0,1,4,6H20A2,2,0,0,1,21,6.27Z" style="fill: rgb(44, 169, 188); stroke-width: 2;"></path><path id="primary-stroke" d="M21,4V16a1,1,0,0,1-1,1H16l-4,4L8,17H4a1,1,0,0,1-1-1V4A1,1,0,0,1,4,3H20A1,1,0,0,1,21,4ZM8,8h8m-6,3a8.14,8.14,0,0,0,4,3m-4,0c4-1,4-6,4-6M12,7V8" style="fill: none; stroke: rgb(0, 0, 0); stroke-linecap: round; stroke-linejoin: round; stroke-width: 2;"></path></svg>